<svg width="75" height="75" viewBox="0 0 75 75" fill="none" xmlns="http://www.w3.org/2000/svg">
<path d="M37.5 70.3125C28.7976 70.3125 20.4516 66.8555 14.2981 60.7019C8.14452 54.5484 4.6875 46.2024 4.6875 37.5C4.6875 28.7976 8.14452 20.4516 14.2981 14.2981C20.4516 8.14452 28.7976 4.6875 37.5 4.6875C46.2024 4.6875 54.5484 8.14452 60.7019 14.2981C66.8555 20.4516 70.3125 28.7976 70.3125 37.5C70.3125 46.2024 66.8555 54.5484 60.7019 60.7019C54.5484 66.8555 46.2024 70.3125 37.5 70.3125ZM37.5 75C47.4456 75 56.9839 71.0491 64.0165 64.0165C71.0491 56.9839 75 47.4456 75 37.5C75 27.5544 71.0491 18.0161 64.0165 10.9835C56.9839 3.95088 47.4456 0 37.5 0C27.5544 0 18.0161 3.95088 10.9835 10.9835C3.95088 18.0161 0 27.5544 0 37.5C0 47.4456 3.95088 56.9839 10.9835 64.0165C18.0161 71.0491 27.5544 75 37.5 75Z" fill="white"/>
<path d="M23.4375 29.2969C23.4375 27.7429 24.0548 26.2525 25.1537 25.1537C26.2525 24.0548 27.7429 23.4375 29.2969 23.4375C30.8509 23.4375 32.3412 24.0548 33.4401 25.1537C34.5389 26.2525 35.1562 27.7429 35.1562 29.2969V45.7031C35.1562 47.2571 34.5389 48.7475 33.4401 49.8463C32.3412 50.9452 30.8509 51.5625 29.2969 51.5625C27.7429 51.5625 26.2525 50.9452 25.1537 49.8463C24.0548 48.7475 23.4375 47.2571 23.4375 45.7031V29.2969ZM39.8438 29.2969C39.8438 27.7429 40.4611 26.2525 41.5599 25.1537C42.6588 24.0548 44.1491 23.4375 45.7031 23.4375C47.2571 23.4375 48.7475 24.0548 49.8463 25.1537C50.9452 26.2525 51.5625 27.7429 51.5625 29.2969V45.7031C51.5625 47.2571 50.9452 48.7475 49.8463 49.8463C48.7475 50.9452 47.2571 51.5625 45.7031 51.5625C44.1491 51.5625 42.6588 50.9452 41.5599 49.8463C40.4611 48.7475 39.8438 47.2571 39.8438 45.7031V29.2969Z" fill="white"/>
</svg>
