<svg width="48" height="48" viewBox="0 0 48 48" fill="none" xmlns="http://www.w3.org/2000/svg">
<path fill-rule="evenodd" clip-rule="evenodd" d="M25.8 2.99996C30.6 3.29996 35.1 5.69996 38.4 8.99996C42.3 13.2 44.4 18.3 44.4 24.3C44.4 29.1 42.6 33.6 39.6 37.5C36.6 41.1 32.4 43.8 27.6 44.7C22.8 45.6 18 45 13.8 42.6C9.59999 40.2 6.29999 36.6 4.49999 32.1C2.69999 27.6 2.39999 22.5 3.89999 18C5.39999 13.2 8.09999 9.29996 12.3 6.59996C16.2 3.89996 21 2.69996 25.8 2.99996ZM27.3 41.7C31.2 40.8 34.8 38.7 37.5 35.4C39.9 32.1 41.4 28.2 41.1 24C41.1 19.2 39.3 14.4 36 11.1C33 8.09996 29.4 6.29996 25.2 5.99996C21.3 5.69996 17.1 6.59996 13.8 8.99996C10.5 11.4 8.09999 14.7 6.89999 18.9C5.69999 22.8 5.69999 27 7.49999 30.9C9.29999 34.8 12 37.8 15.6 39.9C19.2 42 23.4 42.6 27.3 41.7Z" fill="white"/>
<path fill-rule="evenodd" clip-rule="evenodd" d="M18 15L20.331 13.752L33.831 22.752V25.248L20.331 34.248L18 33V15ZM21 17.802V30.198L30.297 24L21 17.802Z" fill="white"/>
</svg>
